<svg xmlns="http://www.w3.org/2000/svg" xmlns:xlink="http://www.w3.org/1999/xlink" viewBox="0 0 1024 1024" width="274" height="274" style="" filter="none">
    
    <g>
    <path d="M939 203c23.545 0 38.945 24.525 28.938 45.66l-0.31 0.64-33.114 66.292a96.002 96.002 0 0 1-42.211 42.599l-0.704 0.356-184.998 92.589L519.47 804.961c-12.053 22.788-44.619 22.64-56.56 0.03l-0.355-0.692-92.317-184.815-61.434 30.749c-34.115 17.076-75.058 12.3-104.321-12.069l-0.883-0.744-138.37-118.064c-18.28-15.597-13.452-44.933 8.636-53.953l0.674-0.267 75.965-29.14a95.922 95.922 0 0 1 62.79-2.052l0.77 0.243 69.923 22.352a31.912 31.912 0 0 0 23.708-1.713l0.47-0.234 17.055-8.666-96.6-174.051c-13.449-24.233 8.151-52.79 34.935-46.765l0.813 0.193 331.718 83.012 186.823-94.912A95.987 95.987 0 0 1 825.484 203H939z m-51.755 64h-60.89a31.928 31.928 0 0 0-13.92 3.195l-0.539 0.268L337.154 511.65a95.91 95.91 0 0 1-71.919 6.082l-0.736-0.232-69.92-22.351a31.921 31.921 0 0 0-20.63 0.407l-0.523 0.195-25.706 9.859 97.42 83.123a31.924 31.924 0 0 0 34.597 4.475l0.42-0.207 175.371-87.77a31.868 31.868 0 0 1 14.253-3.392h0.016c0.636 0 1.27 0.017 1.903 0.054l0.07 0.006c11.03 0.667 21.411 7.035 26.711 17.626 7.83 15.647 1.636 34.644-13.824 42.697l-0.471 0.24-56.714 28.382 64.522 129.173 162.5-307.248a31.834 31.834 0 0 1 11.564-12.74l0.034-0.022a32.012 32.012 0 0 1 2.625-1.477l0.06-0.03 194.178-97.185a32 32 0 0 0 14.056-13.835l0.248-0.487L887.245 267z m-566.884 38.288l61.955 111.631 126.768-64.403-188.723-47.228z" p-id="2614" fill="rgba(255,255,255,1)"></path>
    </g>
  </svg>